<svg xmlns="http://www.w3.org/2000/svg" fill="none" viewBox="0 0 47 47"><path fill="#FEDC5A" fill-opacity=".1" fill-rule="evenodd" d="M23.189 46.523c12.646 0 22.897-10.251 22.897-22.897C46.086 10.98 35.835.73 23.19.73 10.543.729.292 10.98.292 23.626c0 12.646 10.251 22.897 22.897 22.897z" clip-rule="evenodd"/><path stroke="#FEDC5A" stroke-linecap="round" stroke-linejoin="round" stroke-width="1.327" d="M20.866 24.18a3.73 3.73 0 0 0-1.433 1.265.91.91 0 0 0 0 1.008c.362.54.849.974 1.433 1.266M26.361 24.18a3.73 3.73 0 0 1 1.434 1.265.91.91 0 0 1 0 1.008c-.363.54-.85.974-1.434 1.266"/><path stroke="#FEDC5A" stroke-linecap="round" stroke-linejoin="round" stroke-width="1.327" d="M20.866 32.144h5.31c4.424 0 6.194-1.77 6.194-6.195v-5.31c0-4.424-1.77-6.194-6.194-6.194h-5.31c-4.424 0-6.194 1.77-6.194 6.195v5.309c0 4.425 1.77 6.195 6.194 6.195zM14.875 19.764l17.008-.01"/></svg>