<svg xmlns="http://www.w3.org/2000/svg" fill="none" viewBox="0 0 47 47"><path fill="#FEDC5A" fill-opacity=".1" fill-rule="evenodd" d="M23.76 46.56c12.646 0 22.898-10.252 22.898-22.898C46.658 11.016 36.406.765 23.76.765 11.115.765.863 11.016.863 23.662c0 12.646 10.252 22.897 22.897 22.897z" clip-rule="evenodd"/><path stroke="#FEDC5A" stroke-linecap="round" stroke-linejoin="round" stroke-width="1.327" d="M28.87 29.746h-9.556c-1.328 0-1.859-.567-1.859-1.974v-.92c0-1.407.531-1.974 1.859-1.974h9.557c1.327 0 1.858.567 1.858 1.974v.92c0 1.407-.53 1.974-1.858 1.974zM27.101 22.224h-6.017c-1.328 0-1.859-.567-1.859-1.974v-.92c0-1.407.531-1.973 1.858-1.973h6.018c1.327 0 1.858.566 1.858 1.973v.92c0 1.407-.53 1.974-1.858 1.974zM24.092 32.18v-2.125M24.092 24.215v-1.77"/><path stroke="#292D32" stroke-linecap="round" stroke-linejoin="round" stroke-width="1.327" d="M24.092 14.48v2.381"/></svg>