<svg xmlns="http://www.w3.org/2000/svg" fill="none" viewBox="0 0 46 47"><path fill="#5454D4" fill-opacity=".1" fill-rule="evenodd" d="M22.975 46.56c12.645 0 22.897-10.252 22.897-22.898C45.872 11.016 35.62.765 22.975.765 10.329.765.077 11.016.077 23.662c0 12.646 10.252 22.897 22.898 22.897z" clip-rule="evenodd"/><path stroke="#5454D4" stroke-linecap="round" stroke-linejoin="round" stroke-width="1.327" d="M18.67 32.18h9.273c2.443 0 3.416-1.496 3.531-3.32l.46-7.309a3.321 3.321 0 0 0-3.318-3.53c-.54 0-1.035-.31-1.283-.788l-.637-1.283c-.407-.805-1.47-1.47-2.372-1.47h-2.026c-.912 0-1.974.665-2.38 1.47l-.638 1.283a1.454 1.454 0 0 1-1.283.787 3.321 3.321 0 0 0-3.319 3.531l.46 7.31c.107 1.823 1.09 3.318 3.531 3.318zM21.98 19.79h2.654"/><path stroke="#5454D4" stroke-linecap="round" stroke-linejoin="round" stroke-width="1.327" d="M23.306 28.64a2.882 2.882 0 0 0 2.877-2.877 2.882 2.882 0 0 0-2.877-2.876 2.882 2.882 0 0 0-2.876 2.876 2.882 2.882 0 0 0 2.877 2.876z"/></svg>