<svg xmlns="http://www.w3.org/2000/svg" fill="none" viewBox="0 0 46 47"><path fill="#F04037" fill-opacity=".1" fill-rule="evenodd" d="M22.975 46.523c12.645 0 22.897-10.251 22.897-22.897C45.872 10.98 35.62.73 22.975.73 10.329.729.077 10.98.077 23.626c0 12.646 10.252 22.897 22.898 22.897z" clip-rule="evenodd"/><path stroke="#F04037" stroke-linecap="round" stroke-linejoin="round" stroke-width="1.327" d="m24.2 15.26 5.221 2.318c1.505.663 1.505 1.76 0 2.425l-5.22 2.318c-.594.265-1.567.265-2.16 0l-5.22-2.319c-1.505-.663-1.505-1.76 0-2.424l5.22-2.319c.593-.265 1.566-.265 2.16 0z"/><path stroke="#F04037" stroke-linecap="round" stroke-linejoin="round" stroke-width="1.327" d="M15.342 22.41c0 .743.558 1.601 1.24 1.902l6.008 2.672c.46.204.982.204 1.433 0l6.009-2.672c.681-.3 1.239-1.16 1.239-1.903"/><path stroke="#F04037" stroke-linecap="round" stroke-linejoin="round" stroke-width="1.327" d="M15.342 26.834c0 .823.487 1.566 1.24 1.903l6.008 2.672c.46.204.982.204 1.433 0l6.009-2.672a2.086 2.086 0 0 0 1.239-1.903"/></svg>