<svg xmlns="http://www.w3.org/2000/svg" fill="none" viewBox="0 0 47 47"><path fill="#F04037" fill-opacity=".1" fill-rule="evenodd" d="M23.189 46.56c12.646 0 22.897-10.252 22.897-22.898C46.086 11.016 35.835.765 23.19.765 10.543.765.292 11.016.292 23.662c0 12.646 10.251 22.897 22.897 22.897z" clip-rule="evenodd"/><path stroke="#F04037" stroke-linecap="round" stroke-linejoin="round" stroke-width="1.327" d="M32.37 25.985v-5.31c0-4.424-1.77-6.194-6.194-6.194h-5.31c-4.424 0-6.194 1.77-6.194 6.194v5.31c0 4.424 1.77 6.194 6.194 6.194h5.31c4.424 0 6.194-1.77 6.194-6.194zM15.132 19.003H31.91M20.441 14.578v4.301M26.6 14.578v3.903"/><path stroke="#F04037" stroke-linecap="round" stroke-linejoin="round" stroke-miterlimit="10" stroke-width="1.327" d="M21.53 25.498v-1.062c0-1.363.964-1.92 2.141-1.239l.92.531.92.531c1.178.682 1.178 1.797 0 2.478l-.92.531-.92.531c-1.177.681-2.141.124-2.141-1.239v-1.062 0z"/></svg>